<svg width="136" height="19" viewBox="0 0 136 19" fill="none" xmlns="http://www.w3.org/2000/svg">
<path d="M6.26562 15.9844C6.72656 15.9844 7.14062 15.8945 7.50781 15.7148C7.88281 15.5273 8.18359 15.2695 8.41016 14.9414C8.64453 14.6133 8.77344 14.2344 8.79688 13.8047H11.457C11.4414 14.625 11.1992 15.3711 10.7305 16.043C10.2617 16.7148 9.64062 17.25 8.86719 17.6484C8.09375 18.0391 7.23828 18.2344 6.30078 18.2344C5.33203 18.2344 4.48828 18.0703 3.76953 17.7422C3.05078 17.4062 2.45312 16.9453 1.97656 16.3594C1.5 15.7734 1.14062 15.0977 0.898438 14.332C0.664062 13.5664 0.546875 12.7461 0.546875 11.8711V11.4609C0.546875 10.5859 0.664062 9.76562 0.898438 9C1.14062 8.22656 1.5 7.54688 1.97656 6.96094C2.45312 6.375 3.05078 5.91797 3.76953 5.58984C4.48828 5.25391 5.32812 5.08594 6.28906 5.08594C7.30469 5.08594 8.19531 5.28906 8.96094 5.69531C9.72656 6.09375 10.3281 6.65234 10.7656 7.37109C11.2109 8.08203 11.4414 8.91016 11.457 9.85547H8.79688C8.77344 9.38672 8.65625 8.96484 8.44531 8.58984C8.24219 8.20703 7.95312 7.90234 7.57812 7.67578C7.21094 7.44922 6.76953 7.33594 6.25391 7.33594C5.68359 7.33594 5.21094 7.45312 4.83594 7.6875C4.46094 7.91406 4.16797 8.22656 3.95703 8.625C3.74609 9.01562 3.59375 9.45703 3.5 9.94922C3.41406 10.4336 3.37109 10.9375 3.37109 11.4609V11.8711C3.37109 12.3945 3.41406 12.9023 3.5 13.3945C3.58594 13.8867 3.73438 14.3281 3.94531 14.7188C4.16406 15.1016 4.46094 15.4102 4.83594 15.6445C5.21094 15.8711 5.6875 15.9844 6.26562 15.9844ZM20.7734 15.457V9.41016C20.7734 8.95703 20.6914 8.56641 20.5273 8.23828C20.3633 7.91016 20.1133 7.65625 19.7773 7.47656C19.4492 7.29688 19.0352 7.20703 18.5352 7.20703C18.0742 7.20703 17.6758 7.28516 17.3398 7.44141C17.0039 7.59766 16.7422 7.80859 16.5547 8.07422C16.3672 8.33984 16.2734 8.64062 16.2734 8.97656H13.4609C13.4609 8.47656 13.582 7.99219 13.8242 7.52344C14.0664 7.05469 14.418 6.63672 14.8789 6.26953C15.3398 5.90234 15.8906 5.61328 16.5312 5.40234C17.1719 5.19141 17.8906 5.08594 18.6875 5.08594C19.6406 5.08594 20.4844 5.24609 21.2188 5.56641C21.9609 5.88672 22.543 6.37109 22.9648 7.01953C23.3945 7.66016 23.6094 8.46484 23.6094 9.43359V15.0703C23.6094 15.6484 23.6484 16.168 23.7266 16.6289C23.8125 17.082 23.9336 17.4766 24.0898 17.8125V18H21.1953C21.0625 17.6953 20.957 17.3086 20.8789 16.8398C20.8086 16.3633 20.7734 15.9023 20.7734 15.457ZM21.1836 10.2891L21.207 12.0352H19.1797C18.6562 12.0352 18.1953 12.0859 17.7969 12.1875C17.3984 12.2812 17.0664 12.4219 16.8008 12.6094C16.5352 12.7969 16.3359 13.0234 16.2031 13.2891C16.0703 13.5547 16.0039 13.8555 16.0039 14.1914C16.0039 14.5273 16.082 14.8359 16.2383 15.1172C16.3945 15.3906 16.6211 15.6055 16.918 15.7617C17.2227 15.918 17.5898 15.9961 18.0195 15.9961C18.5977 15.9961 19.1016 15.8789 19.5312 15.6445C19.9688 15.4023 20.3125 15.1094 20.5625 14.7656C20.8125 14.4141 20.9453 14.082 20.9609 13.7695L21.875 15.0234C21.7812 15.3438 21.6211 15.6875 21.3945 16.0547C21.168 16.4219 20.8711 16.7734 20.5039 17.1094C20.1445 17.4375 19.7109 17.707 19.2031 17.918C18.7031 18.1289 18.125 18.2344 17.4688 18.2344C16.6406 18.2344 15.9023 18.0703 15.2539 17.7422C14.6055 17.4062 14.0977 16.957 13.7305 16.3945C13.3633 15.8242 13.1797 15.1797 13.1797 14.4609C13.1797 13.7891 13.3047 13.1953 13.5547 12.6797C13.8125 12.1562 14.1875 11.7188 14.6797 11.3672C15.1797 11.0156 15.7891 10.75 16.5078 10.5703C17.2266 10.3828 18.0469 10.2891 18.9688 10.2891H21.1836ZM29.4805 13.875L34.4609 5.32031H37.2852V18H34.4609V9.43359L29.4805 18H26.6562V5.32031H29.4805V13.875ZM33.7109 0.445312H35.8086C35.8086 1.09375 35.6523 1.66797 35.3398 2.16797C35.0352 2.66016 34.5977 3.04688 34.0273 3.32812C33.4648 3.60938 32.793 3.75 32.0117 3.75C30.832 3.75 29.8984 3.44531 29.2109 2.83594C28.5312 2.21875 28.1914 1.42187 28.1914 0.445312H30.2891C30.2891 0.882812 30.418 1.26953 30.6758 1.60547C30.9414 1.93359 31.3867 2.09766 32.0117 2.09766C32.6289 2.09766 33.0664 1.93359 33.3242 1.60547C33.582 1.26953 33.7109 0.882812 33.7109 0.445312ZM46.1562 5.32031V18H43.3203V5.32031H46.1562ZM50.3164 5.32031V7.54688H39.2305V5.32031H50.3164ZM61.0977 13.875L66.0781 5.32031H68.9023V18H66.0781V9.43359L61.0977 18H58.2734V5.32031H61.0977V13.875ZM80.5508 10.6172V12.8438H73.9883V10.6172H80.5508ZM74.8086 5.32031V18H71.9844V5.32031H74.8086ZM82.5898 5.32031V18H79.7656V5.32031H82.5898ZM91.7656 12.5742H87.7109L87.6875 10.582H91.0156C91.5625 10.582 92.0117 10.5273 92.3633 10.418C92.7227 10.3086 92.9883 10.1445 93.1602 9.92578C93.332 9.69922 93.418 9.42578 93.418 9.10547C93.418 8.83984 93.3672 8.60938 93.2656 8.41406C93.1641 8.21094 93.0078 8.04688 92.7969 7.92188C92.5938 7.78906 92.3359 7.69531 92.0234 7.64062C91.7188 7.57812 91.3633 7.54688 90.957 7.54688H88.6484V18H85.8242V5.32031H90.957C91.7695 5.32031 92.5 5.39062 93.1484 5.53125C93.8047 5.67188 94.3633 5.88672 94.8242 6.17578C95.2852 6.46484 95.6367 6.83203 95.8789 7.27734C96.1289 7.71484 96.2539 8.23047 96.2539 8.82422C96.2539 9.21484 96.168 9.58203 95.9961 9.92578C95.832 10.2695 95.5859 10.5742 95.2578 10.8398C94.9297 11.1055 94.5273 11.3242 94.0508 11.4961C93.5742 11.6602 93.0273 11.7617 92.4102 11.8008L91.7656 12.5742ZM91.7656 18H86.8906L88.0156 15.7734H91.7656C92.2656 15.7734 92.6797 15.7109 93.0078 15.5859C93.3359 15.4609 93.5781 15.2812 93.7344 15.0469C93.8984 14.8047 93.9805 14.5195 93.9805 14.1914C93.9805 13.8555 93.9023 13.5664 93.7461 13.3242C93.5898 13.082 93.3477 12.8984 93.0195 12.7734C92.6992 12.6406 92.2812 12.5742 91.7656 12.5742H88.543L88.5664 10.582H92.3984L93.207 11.3555C94.0117 11.4102 94.6797 11.582 95.2109 11.8711C95.7422 12.1602 96.1406 12.5234 96.4062 12.9609C96.6719 13.3984 96.8047 13.875 96.8047 14.3906C96.8047 14.9844 96.6914 15.5078 96.4648 15.9609C96.2461 16.4141 95.918 16.793 95.4805 17.0977C95.0508 17.3945 94.5234 17.6211 93.8984 17.7773C93.2734 17.9258 92.5625 18 91.7656 18ZM106.391 15.457V9.41016C106.391 8.95703 106.309 8.56641 106.145 8.23828C105.98 7.91016 105.73 7.65625 105.395 7.47656C105.066 7.29688 104.652 7.20703 104.152 7.20703C103.691 7.20703 103.293 7.28516 102.957 7.44141C102.621 7.59766 102.359 7.80859 102.172 8.07422C101.984 8.33984 101.891 8.64062 101.891 8.97656H99.0781C99.0781 8.47656 99.1992 7.99219 99.4414 7.52344C99.6836 7.05469 100.035 6.63672 100.496 6.26953C100.957 5.90234 101.508 5.61328 102.148 5.40234C102.789 5.19141 103.508 5.08594 104.305 5.08594C105.258 5.08594 106.102 5.24609 106.836 5.56641C107.578 5.88672 108.16 6.37109 108.582 7.01953C109.012 7.66016 109.227 8.46484 109.227 9.43359V15.0703C109.227 15.6484 109.266 16.168 109.344 16.6289C109.43 17.082 109.551 17.4766 109.707 17.8125V18H106.812C106.68 17.6953 106.574 17.3086 106.496 16.8398C106.426 16.3633 106.391 15.9023 106.391 15.457ZM106.801 10.2891L106.824 12.0352H104.797C104.273 12.0352 103.812 12.0859 103.414 12.1875C103.016 12.2812 102.684 12.4219 102.418 12.6094C102.152 12.7969 101.953 13.0234 101.82 13.2891C101.688 13.5547 101.621 13.8555 101.621 14.1914C101.621 14.5273 101.699 14.8359 101.855 15.1172C102.012 15.3906 102.238 15.6055 102.535 15.7617C102.84 15.918 103.207 15.9961 103.637 15.9961C104.215 15.9961 104.719 15.8789 105.148 15.6445C105.586 15.4023 105.93 15.1094 106.18 14.7656C106.43 14.4141 106.562 14.082 106.578 13.7695L107.492 15.0234C107.398 15.3438 107.238 15.6875 107.012 16.0547C106.785 16.4219 106.488 16.7734 106.121 17.1094C105.762 17.4375 105.328 17.707 104.82 17.918C104.32 18.1289 103.742 18.2344 103.086 18.2344C102.258 18.2344 101.52 18.0703 100.871 17.7422C100.223 17.4062 99.7148 16.957 99.3477 16.3945C98.9805 15.8242 98.7969 15.1797 98.7969 14.4609C98.7969 13.7891 98.9219 13.1953 99.1719 12.6797C99.4297 12.1562 99.8047 11.7188 100.297 11.3672C100.797 11.0156 101.406 10.75 102.125 10.5703C102.844 10.3828 103.664 10.2891 104.586 10.2891H106.801ZM115.098 13.875L120.078 5.32031H122.902V18H120.078V9.43359L115.098 18H112.273V5.32031H115.098V13.875ZM119.328 0.445312H121.426C121.426 1.09375 121.27 1.66797 120.957 2.16797C120.652 2.66016 120.215 3.04688 119.645 3.32812C119.082 3.60938 118.41 3.75 117.629 3.75C116.449 3.75 115.516 3.44531 114.828 2.83594C114.148 2.21875 113.809 1.42187 113.809 0.445312H115.906C115.906 0.882812 116.035 1.26953 116.293 1.60547C116.559 1.93359 117.004 2.09766 117.629 2.09766C118.246 2.09766 118.684 1.93359 118.941 1.60547C119.199 1.26953 119.328 0.882812 119.328 0.445312ZM131.773 5.32031V18H128.938V5.32031H131.773ZM135.934 5.32031V7.54688H124.848V5.32031H135.934Z" fill="#F2F1ED"/>
</svg>
